<?xml version="1.0" encoding="UTF-8" standalone="no"?>
<!-- Created with Inkscape (http://www.inkscape.org/) -->

<svg
   xmlns:dc="http://purl.org/dc/elements/1.1/"
   xmlns:cc="http://creativecommons.org/ns#"
   xmlns:rdf="http://www.w3.org/1999/02/22-rdf-syntax-ns#"
   xmlns:svg="http://www.w3.org/2000/svg"
   xmlns="http://www.w3.org/2000/svg"
   xmlns:sodipodi="http://sodipodi.sourceforge.net/DTD/sodipodi-0.dtd"
   xmlns:inkscape="http://www.inkscape.org/namespaces/inkscape"
   width="256"
   height="256"
   id="svg2"
   version="1.1"
   inkscape:version="0.91 r13725"
   sodipodi:docname="icons.svg"
   inkscape:export-filename="..\..\P9-android\assets\textures\icons.png"
   inkscape:export-xdpi="45"
   inkscape:export-ydpi="45">
  <defs
     id="defs4" />
  <sodipodi:namedview
     id="base"
     pagecolor="#ffffff"
     bordercolor="#666666"
     borderopacity="1.0"
     inkscape:pageopacity="0.0"
     inkscape:pageshadow="2"
     inkscape:zoom="1.6449277"
     inkscape:cx="17.890522"
     inkscape:cy="127.64989"
     inkscape:document-units="px"
     inkscape:current-layer="layer2"
     showgrid="false"
     inkscape:window-width="1317"
     inkscape:window-height="744"
     inkscape:window-x="49"
     inkscape:window-y="24"
     inkscape:window-maximized="1"
     showguides="true"
     inkscape:guide-bbox="true" />
  <metadata
     id="metadata7">
    <rdf:RDF>
      <cc:Work
         rdf:about="">
        <dc:format>image/svg+xml</dc:format>
        <dc:type
           rdf:resource="http://purl.org/dc/dcmitype/StillImage" />
        <dc:title />
      </cc:Work>
    </rdf:RDF>
  </metadata>
  <g
     inkscape:label="grid"
     inkscape:groupmode="layer"
     id="layer1"
     transform="translate(0,-796.36218)"
     style="display:none"
     sodipodi:insensitive="true">
    <rect
       style="fill:#b4903c;fill-opacity:1;stroke:none"
       id="rect3806"
       width="64"
       height="64"
       x="-128"
       y="924.36218"
       transform="scale(-1,1)" />
    <rect
       style="fill:#b4903c;fill-opacity:1;stroke:none"
       id="rect2985"
       width="64"
       height="64"
       x="0"
       y="988.36218" />
    <rect
       y="988.36218"
       x="64"
       height="64"
       width="64"
       id="rect3028"
       style="fill:#c7a656;fill-opacity:1;stroke:none" />
    <rect
       style="fill:#c7a656;fill-opacity:1;stroke:none"
       id="rect3800"
       width="64"
       height="64"
       x="192"
       y="988.36218" />
    <rect
       y="924.36218"
       x="-256"
       height="64"
       width="64"
       id="rect3802"
       style="fill:#b4903c;fill-opacity:1;stroke:none"
       transform="scale(-1,1)" />
    <rect
       style="fill:#c7a656;fill-opacity:1;stroke:none"
       id="rect3804"
       width="64"
       height="64"
       x="-192"
       y="924.36218"
       transform="scale(-1,1)" />
    <rect
       y="924.36218"
       x="-64"
       height="64"
       width="64"
       id="rect3808"
       style="fill:#c7a656;fill-opacity:1;stroke:none"
       transform="scale(-1,1)" />
    <rect
       y="988.36218"
       x="128"
       height="64"
       width="64"
       id="rect3798"
       style="display:inline;fill:#b4903c;fill-opacity:1;stroke:none" />
    <rect
       transform="scale(-1,1)"
       y="796.36218"
       x="-128"
       height="64"
       width="64"
       id="rect4152"
       style="fill:#b4903c;fill-opacity:1;stroke:none" />
    <rect
       y="860.36218"
       x="0"
       height="64"
       width="64"
       id="rect4154"
       style="fill:#b4903c;fill-opacity:1;stroke:none" />
    <rect
       style="fill:#c7a656;fill-opacity:1;stroke:none"
       id="rect4156"
       width="64"
       height="64"
       x="64"
       y="860.36218" />
    <rect
       y="860.36218"
       x="192"
       height="64"
       width="64"
       id="rect4158"
       style="fill:#c7a656;fill-opacity:1;stroke:none" />
    <rect
       transform="scale(-1,1)"
       style="fill:#b4903c;fill-opacity:1;stroke:none"
       id="rect4160"
       width="64"
       height="64"
       x="-256"
       y="796.36218" />
    <rect
       transform="scale(-1,1)"
       y="796.36218"
       x="-192"
       height="64"
       width="64"
       id="rect4162"
       style="fill:#c7a656;fill-opacity:1;stroke:none" />
    <rect
       transform="scale(-1,1)"
       style="fill:#c7a656;fill-opacity:1;stroke:none"
       id="rect4164"
       width="64"
       height="64"
       x="-64"
       y="796.36218" />
    <rect
       style="display:inline;fill:#b4903c;fill-opacity:1;stroke:none"
       id="rect4166"
       width="64"
       height="64"
       x="128"
       y="860.36218" />
  </g>
  <g
     inkscape:groupmode="layer"
     id="layer2"
     inkscape:label="drawing"
     transform="translate(0,-256)"
     style="display:inline">
    <path
       style="fill:#ffffff;fill-opacity:1;stroke:none"
       d="m 95.999991,274.95874 c -8.938097,0 -17.198035,3.96569 -21.297003,5.81 -4.098967,1.84431 -8.577994,3.61048 -8.577994,7.21143 0,3.60096 4.479027,5.37902 8.577994,7.23099 4.098968,1.85198 12.358906,5.82955 21.297003,5.82955 8.938099,0 17.198039,-3.97757 21.296999,-5.82955 4.09898,-1.85197 8.578,-3.63003 8.578,-7.23099 0,-3.60095 -4.47902,-5.36712 -8.578,-7.21143 -4.09896,-1.84431 -12.3589,-5.81 -21.296999,-5.81 z m 0,2.50262 c 7.210399,0 15.110129,3.20548 18.812399,4.6961 3.70229,1.49063 7.30867,2.91781 7.30867,5.82271 0,2.90492 -3.60638,4.33633 -7.30867,5.82696 -3.70227,1.49062 -11.602,4.69186 -18.812399,4.69186 -7.210401,0 -15.110129,-3.20124 -18.812406,-4.69186 -3.702278,-1.49063 -7.308665,-2.92204 -7.308665,-5.82696 0,-2.9049 3.606387,-4.33208 7.308665,-5.82271 3.702277,-1.49062 11.602005,-4.6961 18.812406,-4.6961 z"
       id="path3777"
       inkscape:connector-curvature="0"
       sodipodi:nodetypes="ssssssssssssssssss" />
    <circle
       style="fill:#ffffff;fill-opacity:1;stroke:none"
       id="path3782"
       cx="96.675987"
       cy="287.99973"
       r="9" />
    <path
       style="fill:#ffffff;fill-opacity:1;stroke:none"
       d="M 28.2037,271.99975 4,287.7733 l 24.2037,16.22645 4.4626,-7.57443 -7.14024,-4.0449 34.47394,0 0,-8.74574 -34.47394,0 7.14024,-4.04491 z"
       id="rect3015"
       inkscape:connector-curvature="0"
       sodipodi:nodetypes="cccccccccc" />
    <path
       style="fill:#ffffff;fill-opacity:1;stroke:none"
       d="M 157.17677,262.71469 C 143.2711,262.71469 132,274.38205 132,288.7766 c 0,11.2603 6.9041,20.86518 16.56413,24.50821 l 0,-9.80329 c -4.79151,-3.01355 -7.98723,-8.47633 -7.98723,-14.70492 0,-9.4911 7.43108,-17.18347 16.59987,-17.18347 8.52643,0 15.53296,6.6579 16.4748,15.22284 l -5.3427,0 9.84556,19.42158 9.84557,-19.42158 -5.71792,0 C 181.31623,273.335 170.44705,262.71469 157.17677,262.71469 Z"
       id="path3074"
       inkscape:connector-curvature="0" />
    <path
       style="fill:#ffffff;fill-opacity:1;stroke:none"
       d="m 200.02662,347.78029 0,34.25071 47.94676,0 0,-34.25071 -47.94676,0 z M 224,354.85585 c 2.14034,0 3.88833,1.65577 3.88833,3.72562 0,1.25753 -0.66778,2.38835 -1.65044,3.06817 l 1.42665,8.60964 c -2.44772,0.89014 -4.88136,1.01387 -7.32908,0 l 1.42665,-8.60964 c -0.98266,-0.67982 -1.65044,-1.81064 -1.65044,-3.06817 0,-2.06985 1.74799,-3.72562 3.88833,-3.72562 z"
       id="rect3027"
       inkscape:connector-curvature="0" />
    <path
       style="display:inline;fill:#ffffff;fill-opacity:1;stroke:none"
       d="m 214.98437,273.68725 -19.84375,14.3125 19.84375,14.3125 37.875,0 0,-28.625 -37.875,0 z m 12.71875,3.28125 5.125,5.15625 5.15625,-5.15625 5.875,5.875 -5.15625,5.15625 5.15625,5.15625 -5.875,5.84375 -5.15625,-5.15625 -5.125,5.15625 -5.875,-5.84375 5.15625,-5.15625 -5.15625,-5.15625 5.875,-5.875 z"
       id="rect3810"
       inkscape:connector-curvature="0" />
    <path
       inkscape:transform-center-y="-2.5416729"
       inkscape:transform-center-x="0.03998488"
       transform="matrix(-0.34225596,0.31876415,0.31876415,0.34225596,31.33995,360.85257)"
       d="m -53.805315,95.716815 c -0.376108,1.880539 -35.64637,8.599535 -37.056001,9.899855 -1.409631,1.30032 -10.947624,35.91481 -12.852344,36.13823 -1.90473,0.22342 -19.19398,-31.24431 -20.86626,-32.18313 -1.67228,-0.93882 -37.54002,0.68648 -38.34109,-1.05598 -0.80108,-1.74246 23.78384,-27.909586 24.15994,-29.790125 0.37611,-1.88054 -12.25338,-35.490544 -10.84374,-36.790861 1.40963,-1.300318 33.8932,13.995238 35.79792,13.771819 1.90472,-0.223419 29.967009,-22.620838 31.639285,-21.682019 1.672275,0.938818 -2.836688,36.559116 -2.035612,38.301575 0.801075,1.742459 30.77401,21.510096 30.397902,23.390636 z"
       inkscape:randomized="0"
       inkscape:rounded="0.05"
       inkscape:flatsided="false"
       sodipodi:arg2="0.82571409"
       sodipodi:arg1="0.19739556"
       sodipodi:r2="28.879402"
       sodipodi:r1="57.758804"
       sodipodi:cy="84.389381"
       sodipodi:cx="-110.44248"
       sodipodi:sides="5"
       id="path3776"
       style="display:inline;fill:none;stroke:#ffffff;stroke-width:8.5523653;stroke-miterlimit:4;stroke-dasharray:none;stroke-opacity:0.78431373"
       sodipodi:type="star" />
    <path
       sodipodi:type="star"
       style="display:inline;fill:#ffffff;fill-opacity:0.78431373;stroke:#ffffff;stroke-width:8.5523653;stroke-miterlimit:4;stroke-dasharray:none;stroke-opacity:1"
       id="path3011"
       sodipodi:sides="5"
       sodipodi:cx="-110.44248"
       sodipodi:cy="84.389381"
       sodipodi:r1="57.758804"
       sodipodi:r2="28.879402"
       sodipodi:arg1="0.19739556"
       sodipodi:arg2="0.82571409"
       inkscape:flatsided="false"
       inkscape:rounded="0.05"
       inkscape:randomized="0"
       d="m -53.805315,95.716815 c -0.376108,1.880539 -35.64637,8.599535 -37.056001,9.899855 -1.409631,1.30032 -10.947624,35.91481 -12.852344,36.13823 -1.90473,0.22342 -19.19398,-31.24431 -20.86626,-32.18313 -1.67228,-0.93882 -37.54002,0.68648 -38.34109,-1.05598 -0.80108,-1.74246 23.78384,-27.909586 24.15994,-29.790125 0.37611,-1.88054 -12.25338,-35.490544 -10.84374,-36.790861 1.40963,-1.300318 33.8932,13.995238 35.79792,13.771819 1.90472,-0.223419 29.967009,-22.620838 31.639285,-21.682019 1.672275,0.938818 -2.836688,36.559116 -2.035612,38.301575 0.801075,1.742459 30.77401,21.510096 30.397902,23.390636 z"
       transform="matrix(-0.34225596,0.31876415,0.31876415,0.34225596,95.187224,360.71757)"
       inkscape:transform-center-x="0.03998488"
       inkscape:transform-center-y="-2.5416729" />
    <path
       sodipodi:nodetypes="cccccccccc"
       inkscape:connector-curvature="0"
       id="path3003"
       d="M 35.7963,367.99975 60,352.2262 35.7963,335.99975 l -4.4626,7.57443 7.14024,4.0449 -34.47394,0 0,8.74574 34.47394,0 -7.14024,4.04491 z"
       style="fill:#ffffff;fill-opacity:1;stroke:none" />
    <path
       style="fill:#ffffff;fill-opacity:1;stroke:none"
       d="m 223.99987,322.031 c -10.79824,0 -19.59773,7.14676 -19.98657,16.83288 -0.01,0.22196 -0.0133,10.85271 -0.0133,11.07665 l 6.79128,0 c 0,-0.20768 0.006,-10.35099 0.0151,-10.55642 0.35812,-7.30936 5.02833,-11.00558 13.19355,-11.00558 8.07075,0 12.68111,3.81525 13.17859,11.00558 0.0199,0.28859 0.0302,10.26326 0.0302,10.55642 l 6.79128,0 c 0,-0.24336 -0.006,-10.83563 -0.0158,-11.07665 -0.4215,-9.65914 -9.20748,-16.83288 -19.98424,-16.83288 z"
       id="path3771"
       inkscape:connector-curvature="0"
       sodipodi:nodetypes="ssccsssccsss" />
    <path
       style="fill:#ffffff;fill-opacity:1;"
       d="m 10.492747,389.97703 41.48924,23.68056 c 2.46069,1.84213 1.723091,3.31345 0,4.67051 l -41.489236,23.68662 z"
       id="rect4168"
       inkscape:connector-curvature="0"
       sodipodi:nodetypes="ccccc"
       transform="matrix(1.1328239,0,0,1.1337937,-4.8864369,-55.153502)" />
    <text
       xml:space="preserve"
       style="font-style:normal;font-weight:normal;font-size:59.26882553px;line-height:125%;font-family:sans-serif;letter-spacing:0px;word-spacing:0px;fill:#ffffff;fill-opacity:1;stroke:none;stroke-width:1px;stroke-linecap:butt;stroke-linejoin:miter;stroke-opacity:1"
       x="81.472198"
       y="437.18396"
       id="text4175"
       sodipodi:linespacing="125%"><tspan
         sodipodi:role="line"
         id="tspan4177"
         x="81.472198"
         y="437.18396"
         style="font-style:normal;font-variant:normal;font-weight:900;font-stretch:normal;font-family:Roboto;-inkscape-font-specification:'Roboto Heavy';fill:#ffffff;fill-opacity:1">?</tspan></text>
    <text
       sodipodi:linespacing="125%"
       id="text4179"
       y="436.82614"
       x="151.60002"
       style="font-style:normal;font-weight:normal;font-size:59.32110977px;line-height:125%;font-family:sans-serif;letter-spacing:0px;word-spacing:0px;fill:#ffffff;fill-opacity:1;stroke:none;stroke-width:1px;stroke-linecap:butt;stroke-linejoin:miter;stroke-opacity:1"
       xml:space="preserve"><tspan
         style="font-style:normal;font-variant:normal;font-weight:900;font-stretch:normal;font-family:Roboto;-inkscape-font-specification:'Roboto Heavy';fill:#ffffff;fill-opacity:1"
         y="436.82614"
         x="151.60002"
         id="tspan4181"
         sodipodi:role="line">!</tspan></text>
    <path
       transform="translate(0,-540.36218)"
       style="display:inline;fill:#ffffff;fill-opacity:1"
       d="m 218.41113,928.89441 0,8.27539 a 20,20 0 0 0 -4.02149,1.67969 l -5.86133,-5.86133 -7.90234,7.90235 5.85742,5.85742 a 20,20 0 0 0 -1.66015,4.02539 l -8.29102,0 0,11.17774 8.28125,0 a 20,20 0 0 0 1.66211,4.0332 l -5.84961,5.84961 7.90234,7.90234 5.86914,-5.86914 a 20,20 0 0 0 4.01368,1.68359 l 0,8.2793 11.17578,0 0,-8.27539 a 20,20 0 0 0 4.02148,-1.68164 l 5.86328,5.86328 7.90235,-7.90234 -5.85743,-5.85742 a 20,20 0 0 0 1.66016,-4.02539 l 8.29103,0 0,-11.17774 -8.28517,0 a 20,20 0 0 0 -1.66016,-4.03125 l 5.85157,-5.85156 -7.90235,-7.90235 -5.86914,5.86914 a 20,20 0 0 0 -4.01562,-1.68359 l 0,-8.2793 -11.17578,0 z m 5.58789,16.9668 a 10.5,10.5 0 0 1 10.5,10.5 10.5,10.5 0 0 1 -10.5,10.5 10.5,10.5 0 0 1 -10.5,-10.5 10.5,10.5 0 0 1 10.5,-10.5 z"
       id="path4183"
       inkscape:connector-curvature="0" />
    <text
       sodipodi:linespacing="125%"
       id="text4168"
       y="501.0827"
       x="15.012304"
       style="font-style:normal;font-weight:normal;font-size:59.26882553px;line-height:125%;font-family:sans-serif;letter-spacing:0px;word-spacing:0px;fill:#ffffff;fill-opacity:1;stroke:none;stroke-width:1px;stroke-linecap:butt;stroke-linejoin:miter;stroke-opacity:1"
       xml:space="preserve"><tspan
         style="font-style:normal;font-variant:normal;font-weight:900;font-stretch:normal;font-family:Roboto;-inkscape-font-specification:'Roboto Heavy';fill:#ffffff;fill-opacity:1"
         y="501.0827"
         x="15.012304"
         id="tspan4170"
         sodipodi:role="line">9</tspan></text>
    <text
       xml:space="preserve"
       style="font-style:normal;font-weight:normal;font-size:59.26882553px;line-height:125%;font-family:sans-serif;letter-spacing:0px;word-spacing:0px;fill:#ffffff;fill-opacity:1;stroke:none;stroke-width:1px;stroke-linecap:butt;stroke-linejoin:miter;stroke-opacity:1"
       x="63.992519"
       y="501.14056"
       id="text4172"
       sodipodi:linespacing="125%"><tspan
         sodipodi:role="line"
         id="tspan4174"
         x="63.992519"
         y="501.14056"
         style="font-style:normal;font-variant:normal;font-weight:bold;font-stretch:normal;font-family:'Roboto Condensed';-inkscape-font-specification:'Roboto Condensed,  Bold';fill:#ffffff;fill-opacity:1">9P</tspan></text>
    <g
       id="g4186"
       transform="matrix(1.3101497,0,0,1.3101497,-46.686401,-142.85597)">
      <rect
         y="472.38782"
         x="137.0766"
         height="16.397604"
         width="9.9491081"
         id="rect4178"
         style="fill:#ffffff;fill-opacity:1" />
      <rect
         style="fill:#ffffff;fill-opacity:1"
         id="rect4180"
         width="9.9491081"
         height="26.754478"
         x="152.78328"
         y="462.03094" />
      <rect
         y="480.40237"
         x="168.48996"
         height="8.3830452"
         width="9.9491081"
         id="rect4182"
         style="fill:#ffffff;fill-opacity:1" />
      <rect
         y="487.49573"
         x="135.1881"
         height="1.2896999"
         width="45.139469"
         id="rect4184"
         style="fill:#ffffff;fill-opacity:1" />
    </g>
  </g>
</svg>
